<?xml version="1.0" standalone="no"?>
<!DOCTYPE svg PUBLIC "-//W3C//DTD SVG 20010904//EN"
 "http://www.w3.org/TR/2001/REC-SVG-20010904/DTD/svg10.dtd">
<svg version="1.0" xmlns="http://www.w3.org/2000/svg"
 width="260.000000pt" height="260.000000pt" viewBox="0 0 260.000000 260.000000"
 preserveAspectRatio="xMidYMid meet">
<metadata>
Created by potrace 1.11, written by Peter Selinger 2001-2013
</metadata>
<g transform="translate(0.000000,260.000000) scale(0.100000,-0.100000)"
fill="#000000" stroke="none">
<path d="M357 2385 c-2 -5 -2 -18 1 -27 4 -16 23 -17 199 -17 107 1 197 -1
200 -4 4 -4 7 -1981 4 -2064 -1 -10 -48 -13 -201 -13 -193 0 -200 -1 -200 -20
0 -11 0 -23 0 -27 0 -8 1055 -13 1078 -5 6 2 12 15 12 28 l0 24 -202 0 -203 0
1 527 c1 291 2 531 3 535 1 8 172 3 256 -7 185 -22 267 -96 301 -270 6 -32 16
-119 16 -135 -2 -48 8 -60 48 -60 l40 0 0 495 c0 272 -3 495 -7 496 -5 0 -15
2 -23 3 -40 8 -56 -11 -59 -65 -4 -86 -29 -200 -57 -257 -54 -110 -145 -146
-403 -158 l-116 -5 0 485 c1 267 3 488 7 491 12 12 428 4 548 -10 180 -23 331
-84 400 -162 94 -107 143 -291 145 -541 l0 -72 48 1 47 2 0 421 0 421 -940 0
c-619 0 -941 -3 -943 -10z"/>
</g>
</svg>
